<?xml version="1.0" encoding="utf-8"?>
<!-- Generator: Adobe Illustrator 25.4.1, SVG Export Plug-In . SVG Version: 6.00 Build 0)  -->
<svg version="1.1" id="Calque_1" xmlns="http://www.w3.org/2000/svg" xmlns:xlink="http://www.w3.org/1999/xlink" x="0px" y="0px"
	 viewBox="0 0 1338 1214" style="enable-background:new 0 0 1338 1214;" xml:space="preserve">
<style type="text/css">
	.st0{fill-rule:evenodd;clip-rule:evenodd;}
</style>
<g>
	<path class="st0" d="M407.5,30h343.8v95.9c0,21.9,17.6,39.5,39.5,39.5h95.9v311.6h-45.2v-43.4c0-48.3-39.5-87.8-87.8-87.8h-97.7
		L495.3,130.4l-7.8-10.3l-99.8-14.5V49.2C388.2,38.5,396.9,30,407.5,30L407.5,30z M600.8,805.4H674c8.1,0,14.5,6.4,14.5,14.5V893
		c0,8.1-6.4,14.5-14.5,14.5H601c-8.1,0-14.5-6.4-14.5-14.5v-73.1C586.2,812.2,592.6,805.4,600.8,805.4z M175.6,508.5h923.9v210.9
		c0,72.3-59.3,131.6-131.6,131.6h-249v-52.1c0-13-10.3-23.3-23.3-23.3H579.8c-13,0-23.3,10.3-23.3,23.3V851H307.4
		c-72.3,0-131.6-59.3-131.6-131.6V508.5H175.6z M467,481.8v-41.7c0-15.9,6.4-30.6,17.2-41.3l0,0c10.9-10.9,25.4-17.2,41.3-17.2
		h223.8c15.9,0,30.6,6.4,41.3,17.2l0,0c10.9,10.9,17.2,25.4,17.2,41.3v41.7h-38.8v-41.7c0-5.6-2.1-10.3-5.6-13.8l0,0
		c-3.5-3.5-8.5-5.6-13.8-5.6H526c-5.6,0-10.3,2.1-13.8,5.6l0,0c-3.5,3.5-5.6,8.5-5.6,13.8v41.7H467L467,481.8z M1099.6,829.4v306.4
		c0,39.1-31.8,70.9-70.9,70.9h-782c-39.1,0-70.9-31.8-70.9-70.9V829.4c31.4,37.8,78.7,62,131.6,62h249.2v23.6
		c0,13,10.3,23.3,23.3,23.3h115.7c13,0,23.3-10.3,23.3-23.3v-23.6H968C1020.4,891.1,1067.6,866.8,1099.6,829.4L1099.6,829.4z
		 M998.5,63.5L1289,247.6l-51.2,80.8c-11.6,18.4-6,43,12,54.7l80.8,51.2l-197.1,311.2V508.9c0-17.6-14.1-31.8-31.8-31.8H915.5V158.5
		l56.4-89.1C977.3,60.4,989.3,57.9,998.5,63.5L998.5,63.5z M1300.2,254.6l37.8,169.2l-80.8-51.2c-12.4-7.8-15.9-24.6-8.1-37
		L1300.2,254.6z M1291.1,306.2l-25.4,40.1c-1.7,3.1-0.8,7.4,2.1,9.1l40.1,25.4L1291.1,306.2z M10.4,328.7l275.8-205.8l57.2,76.9
		c13,17.2,37.8,21.1,55,8.1l76.9-57.2l145.5,195h-99.8c-48.3,0-87.8,39.5-87.8,87.8v43.4H173c-17.6,0-31.8,14.1-31.8,31.8v27.9
		L6.6,356.2C-0.4,347.5,1.3,335,10.4,328.7L10.4,328.7z M296.1,115.5l171.7,25l-76.9,57.4c-11.6,8.5-28.5,6.4-37.4-5.6L296.1,115.5
		L296.1,115.5z M341.3,142.2l28.5,37.8c2.1,3.1,6.4,3.5,9.5,1.4l37.8-28.5L341.3,142.2z M764.3,30L887,152.7h-95.9
		c-14.5,0-26.7-12-26.7-26.7V30z M784.5,78.1v47.3c0,3.5,3.1,6.4,6.4,6.4h47.3L784.5,78.1z"/>
</g>
</svg>
