<?xml version="1.0" encoding="utf-8"?>
<!-- Generator: Adobe Illustrator 25.4.1, SVG Export Plug-In . SVG Version: 6.00 Build 0)  -->
<svg version="1.1" id="Calque_1" xmlns="http://www.w3.org/2000/svg" xmlns:xlink="http://www.w3.org/1999/xlink" x="0px" y="0px"
	 viewBox="0 0 537.1 561" style="enable-background:new 0 0 537.1 561;" xml:space="preserve">
<g>
	<path d="M38.9,518.7c-1.1,5.4-2.4,9.9-3.9,14.1c-1.4,3.5-3.6,8.6-7.3,11.8c-1.3,1.1-3.1,2.1-5,2.5c-0.2,0-0.5,0-0.7,0.1
		c-1.6,0.3-3.4,0.2-4.9-0.5s-2.9-2.1-4-3.9c-1.8-2.9-2.6-6.4-2.3-9.7c0.4-4.2,2.3-7.7,5.5-10.1c3.9-3.1,10-4.8,16.5-4.8
		c1.9,0,3.8,0.2,5.8,0.4L38.9,518.7z"/>
	<path d="M317.5,274.8c0,10.7-6.7,16.1-20,16.1h-9.9v-31.8h9.9C310.8,259.1,317.5,264.3,317.5,274.8z"/>
	<path d="M494.7,217.9H187.5c-13.7,0-24.8,11.1-24.8,24.8v96.6c0,13.7,11.1,24.8,24.8,24.8h307.3c13.7,0,24.8-11.1,24.8-24.8l0-96.6
		C519.5,229,508.4,218,494.7,217.9L494.7,217.9z M331.8,298.8c-8.1,6.3-18.8,9.5-32.3,9.5l-11.9,0v35.1h-25.1V241.5h39.3
		c28.1,0,42.1,10.9,42.1,32.5C343.9,284.1,339.9,292.4,331.8,298.8L331.8,298.8z M407.9,307.1v36.2h-25.1v-35.7l-35.3-66.1h28.7
		l17.9,38c0.3,0.7,1.2,3.5,2.6,8.3h0.3c0.7-3.4,1.5-6.1,2.4-8l18.3-38.3h26.5L407.9,307.1z"/>
	<path d="M51.9,49c0,0.7,0,1.5-0.1,2.3c-0.3,6.1-1.7,11.9-4.1,17.8c-3.2,7.8-5,10.3-5.8,11.1c-2.1-0.1-3-1-3.5-1.7
		c-3.5-5-0.9-19.3,2.4-29.3L51.9,49z"/>
	<path d="M434.9,485.6c-0.7,14.9-2.1,30.7-7,45.4c-1.5,4.4-3.7,9.9-7.7,13.3c-1.5,1.3-3.5,2.3-5.6,2.7l-377.8,0
		c0-0.1,0.1-0.1,0.1-0.1c2.9-3.8,4.8-8.1,6-11.3c2.4-6.2,4.1-13.1,5.6-22.4c1.3-8.3,2.2-17.2,2.8-28.1c0.5-9.7,0.7-20.2,0.6-32
		c-0.1-10.7-0.4-21.8-1.1-34c-0.5-10.9-1.2-22.1-2.2-34.2c-0.8-10.8-1.8-21.6-2.9-32.4c-1-9.6-2-19.1-3.1-28.6
		c-0.8-7.6-1.8-15.2-2.8-22.8c-0.6-5-1.3-10.1-2-15.2l-0.2-1.2c-0.2-1.4-0.4-2.8-0.6-4.3C5.7,78.1,25.9,30.1,36,18.9
		c2-2.2,3.7-3.1,4.8-3.5c5.7,7.4,9.3,16.1,10.6,25.2l-16.5,0.1l-1,2.7c-1.1,2.9-10.2,28.6-2.3,39.9c1.7,2.3,4.8,5.1,10.3,5.3
		c0.2,0.1,0.4,0.1,0.7,0.1h360.9c-0.1,10.7,0.3,21.2,0.7,30.9l0.3,7.7c1,27.4,3.5,54.9,6.6,82.3H187.5c-18.3,0-33.2,14.8-33.2,33.2
		v96.6c0,18.3,14.9,33.2,33.2,33.2h243.8C434.9,410,436.8,447.9,434.9,485.6L434.9,485.6z"/>
	<path d="M441.9,71c-2.7,5.6-8.6,9.2-15,9.2h-375c1.2-2.2,2.5-5,3.9-8.4c2.6-6.3,4.1-13,4.6-20c0.7-12.9-2.6-25.6-9.4-36.6h379
		c1.1,0,2.2,0.2,3.2,0.4c3.4,0.9,6.4,3.1,8.2,6.3C447.1,32.6,452.1,49.9,441.9,71L441.9,71z"/>
	<g>
		<defs>
			<polyline id="SVGID_1_" points="768.6,644 768.6,1344 68.6,1344 			"/>
		</defs>
		<clipPath id="SVGID_00000137110307810137352410000015235593922316835245_">
			<use xlink:href="#SVGID_1_"  style="overflow:visible;"/>
		</clipPath>
	</g>
	<g>
		<defs>
			<polyline id="SVGID_00000074400176005074982360000004219820895156093119_" points="887.1,644 887.1,1344 187.1,1344 			"/>
		</defs>
		<clipPath id="SVGID_00000040533915665530999220000009066856186680141218_">
			<use xlink:href="#SVGID_00000074400176005074982360000004219820895156093119_"  style="overflow:visible;"/>
		</clipPath>
	</g>
	<g>
		<defs>
			<polyline id="SVGID_00000166654059552274847500000016216080375058910906_" points="900.5,644 900.5,1344 200.5,1344 			"/>
		</defs>
		<clipPath id="SVGID_00000002385031667605678280000007156447296465303198_">
			<use xlink:href="#SVGID_00000166654059552274847500000016216080375058910906_"  style="overflow:visible;"/>
		</clipPath>
	</g>
	<g>
		<defs>
			<polyline id="SVGID_00000146483130437968774240000000450396103306759845_" points="939.3,644 939.3,1344 239.3,1344 			"/>
		</defs>
		<clipPath id="SVGID_00000179606313775284275280000011197019378403393458_">
			<use xlink:href="#SVGID_00000146483130437968774240000000450396103306759845_"  style="overflow:visible;"/>
		</clipPath>
	</g>
	<g>
		<defs>
			<polyline id="SVGID_00000044140067939690886980000013186385061283476393_" points="984.5,644 984.5,1344 284.5,1344 			"/>
		</defs>
		<clipPath id="SVGID_00000099639200752047947540000011735957498500688319_">
			<use xlink:href="#SVGID_00000044140067939690886980000013186385061283476393_"  style="overflow:visible;"/>
		</clipPath>
	</g>
	<g>
		<defs>
			<polyline id="SVGID_00000009575224146976022860000014418827315537114045_" points="1052.5,644 1052.5,1344 352.5,1344 			"/>
		</defs>
		<clipPath id="SVGID_00000173846278517422230270000008303418393552619919_">
			<use xlink:href="#SVGID_00000009575224146976022860000014418827315537114045_"  style="overflow:visible;"/>
		</clipPath>
	</g>
	<g>
		<defs>
			<polyline id="SVGID_00000026140068660578502870000010278869203704732046_" points="695.2,672 695.2,1372 -4.8,1372 			"/>
		</defs>
		<clipPath id="SVGID_00000134934898476298201970000015661966392082458548_">
			<use xlink:href="#SVGID_00000026140068660578502870000010278869203704732046_"  style="overflow:visible;"/>
		</clipPath>
	</g>
	<g>
		<defs>
			<polyline id="SVGID_00000070105840585728316280000001521218912066253709_" points="728.2,672 728.2,1372 28.2,1372 			"/>
		</defs>
		<clipPath id="SVGID_00000079461886182712465960000008236491690658369170_">
			<use xlink:href="#SVGID_00000070105840585728316280000001521218912066253709_"  style="overflow:visible;"/>
		</clipPath>
	</g>
	<g>
		<defs>
			<polyline id="SVGID_00000165207725014666308990000000710162349713343164_" points="767.2,672 767.2,1372 67.2,1372 			"/>
		</defs>
		<clipPath id="SVGID_00000044858004392107318930000002504810108620689024_">
			<use xlink:href="#SVGID_00000165207725014666308990000000710162349713343164_"  style="overflow:visible;"/>
		</clipPath>
	</g>
	<g>
		<defs>
			<polyline id="SVGID_00000176007208893195453970000008871842935209462718_" points="780.5,672 780.5,1372 80.5,1372 			"/>
		</defs>
		<clipPath id="SVGID_00000173120899236021735770000000786567832355771030_">
			<use xlink:href="#SVGID_00000176007208893195453970000008871842935209462718_"  style="overflow:visible;"/>
		</clipPath>
	</g>
	<g>
		<defs>
			<polyline id="SVGID_00000110461555836678269890000001328777865692716969_" points="800.5,672 800.5,1372 100.5,1372 			"/>
		</defs>
		<clipPath id="SVGID_00000088831675647437086600000008881832078316520578_">
			<use xlink:href="#SVGID_00000110461555836678269890000001328777865692716969_"  style="overflow:visible;"/>
		</clipPath>
	</g>
	<g>
		<defs>
			<polyline id="SVGID_00000182512309976225203620000004252181483429997469_" points="852.6,672 852.6,1372 152.6,1372 			"/>
		</defs>
		<clipPath id="SVGID_00000119093556270575088790000007515581115528077703_">
			<use xlink:href="#SVGID_00000182512309976225203620000004252181483429997469_"  style="overflow:visible;"/>
		</clipPath>
	</g>
	<g>
		<defs>
			<polyline id="SVGID_00000147926303522418832300000011756735451557540228_" points="871.9,672 871.9,1372 171.9,1372 			"/>
		</defs>
		<clipPath id="SVGID_00000030456494627767673280000000401921706043119031_">
			<use xlink:href="#SVGID_00000147926303522418832300000011756735451557540228_"  style="overflow:visible;"/>
		</clipPath>
	</g>
	<g>
		<defs>
			<polyline id="SVGID_00000130621011534353897600000004021568846971080103_" points="891.8,672 891.8,1372 191.8,1372 			"/>
		</defs>
		<clipPath id="SVGID_00000004530226635484134640000013540025778544988585_">
			<use xlink:href="#SVGID_00000130621011534353897600000004021568846971080103_"  style="overflow:visible;"/>
		</clipPath>
	</g>
	<g>
		<defs>
			<polyline id="SVGID_00000018937529176238481260000012690106268804455320_" points="942,672 942,1372 242,1372 			"/>
		</defs>
		<clipPath id="SVGID_00000173146042708423338770000016042106649546210953_">
			<use xlink:href="#SVGID_00000018937529176238481260000012690106268804455320_"  style="overflow:visible;"/>
		</clipPath>
	</g>
	<g>
		<defs>
			<polyline id="SVGID_00000158748174448390386890000013549286277743626130_" points="955.8,672 955.8,1372 255.8,1372 			"/>
		</defs>
		<clipPath id="SVGID_00000047739738694872757070000000123585381208896670_">
			<use xlink:href="#SVGID_00000158748174448390386890000013549286277743626130_"  style="overflow:visible;"/>
		</clipPath>
	</g>
	<g>
		<defs>
			<polyline id="SVGID_00000079445711116529748980000008130002484201224872_" points="984.7,672 984.7,1372 284.7,1372 			"/>
		</defs>
		<clipPath id="SVGID_00000039127229400086162670000012419520911516826784_">
			<use xlink:href="#SVGID_00000079445711116529748980000008130002484201224872_"  style="overflow:visible;"/>
		</clipPath>
	</g>
	<g>
		<defs>
			<polyline id="SVGID_00000023251406729685907140000016000463811162238883_" points="1020.2,672 1020.2,1372 320.2,1372 			"/>
		</defs>
		<clipPath id="SVGID_00000155105519310715745210000007082481790602659991_">
			<use xlink:href="#SVGID_00000023251406729685907140000016000463811162238883_"  style="overflow:visible;"/>
		</clipPath>
	</g>
</g>
</svg>
